<?xml version="1.0" encoding="UTF-8"?>
<svg width="723px" height="327px" viewBox="0 0 723 327" version="1.1" xmlns="http://www.w3.org/2000/svg" xmlns:xlink="http://www.w3.org/1999/xlink" xmlns:sketch="http://www.bohemiancoding.com/sketch/ns">
    <!-- Generator: Sketch 3.3.2 (12043) - http://www.bohemiancoding.com/sketch -->
    <title>Rectangle 2 + Ocean of Voices + ocean-waves + Group</title>
    <desc>Created with Sketch.</desc>
    <defs></defs>
    <g id="Page-1" stroke="none" stroke-width="1" fill="none" fill-rule="evenodd" sketch:type="MSPage">
        <g id="Desktop-Landscape" sketch:type="MSArtboardGroup" transform="translate(-125.000000, -88.000000)">
            <g id="Rectangle-2-+-Ocean-of-Voices-+-ocean-waves-+-Group" sketch:type="MSLayerGroup" transform="translate(125.000000, 88.000000)">
                <rect id="Rectangle-2" fill="#FFFFFF" sketch:type="MSShapeGroup" x="0" y="0" width="723" height="327"></rect>
                <g id="Ocean-of-Voices-+-ocean-waves-+-Group" transform="translate(54.000000, 36.000000)">
                    <g id="Ocean-of-Voices-+-ocean-waves" transform="translate(0.000000, 141.000000)" font-size="89.0404166" font-family="Lato" sketch:type="MSTextLayer" font-weight="260">
                        <text id="Ocean-of-Voices">
                            <tspan x="0" y="88.7111332" fill="#212121">Ocean</tspan>
                            <tspan x="249.491247" y="88.7111332" fill="#424242"> </tspan>
                            <tspan x="273.66572" y="88.7111332" fill="#3B3EE3">of</tspan>
                            <tspan x="351.353484" y="88.7111332" fill="#424242"> </tspan>
                            <tspan x="372.411542" y="88.7111332" fill="#212121">Voices</tspan>
                        </text>
                    </g>
                    <g id="Group" transform="translate(201.000000, 0.000000)" sketch:type="MSShapeGroup">
                        <path d="M203.085223,35.303341 C186.127168,18.2920536 158.377072,18.4528506 141.225179,35.6595249 C141.161343,35.7235632 141.101234,35.7904061 141.037864,35.8544444 C138.25237,31.2908966 134.781919,27.1368199 130.703394,23.5731111 C121.939666,15.9123525 110.692851,12.1803678 99.0336638,13.057272 C87.3931149,13.9351111 76.7343383,19.3096552 69.0213447,28.1908812 C65.4344043,32.3206513 62.8399532,37.17541 61.4066681,42.3919617 C58.582034,41.9221916 55.6851766,41.6739847 52.7319383,41.6739847 C28.7537681,41.6739847 9.24599362,61.470705 9.24599362,85.8038621 C9.24599362,105.657142 25.1654298,121.80882 44.7333128,121.80882 C60.7734319,121.80882 73.8230362,108.572989 73.8230362,92.3035172 C73.8230362,78.9017471 63.0701362,67.9984061 49.8527872,67.9984061 C38.8934681,67.9984061 29.9778383,77.0352874 29.9778383,88.1438314 C29.9778383,90.0799387 31.5420574,91.6495785 33.4725191,91.6495785 C35.4029809,91.6495785 36.9672,90.0799387 36.9672,88.1438314 C36.9672,80.9018927 42.7474021,75.0099004 49.8527872,75.0099004 C59.2162021,75.0099004 66.8336745,82.7678851 66.8336745,92.3035172 C66.8336745,104.706383 56.9194979,114.797326 44.7333128,114.797326 C29.0193638,114.797326 16.2353553,101.791004 16.2353553,85.8038621 C16.2353553,65.3368429 32.6077021,48.6854789 52.7319383,48.6854789 C78.369383,48.6854789 99.2261043,69.8924444 99.2261043,95.9597778 C99.2261043,109.779433 110.433779,121.022598 124.209811,121.022598 C126.140272,121.022598 127.704491,119.452958 127.704491,117.516851 C127.704491,115.580743 126.140272,114.011103 124.209811,114.011103 C114.287713,114.011103 106.215466,105.913295 106.215466,95.9597778 C106.215466,91.3536935 105.6456,86.8808276 104.576694,82.6075556 C107.930189,80.8855326 110.960777,78.5179847 113.457377,75.6446743 C122.229026,65.5387739 121.260766,50.2317471 111.297664,41.5211341 C105.255128,36.2428812 96.6679979,35.1514253 89.4200298,38.7413103 C87.6894638,39.5985824 86.9793447,41.7010958 87.8339106,43.4366743 C88.6884766,45.1727203 90.7848191,45.8855556 92.5144532,45.0282835 C97.2257489,42.6939234 102.797668,43.3932031 106.707051,46.8078008 C113.764443,52.9783831 114.427966,63.8490038 108.187398,71.0390575 C106.529055,72.9480536 104.559919,74.5574253 102.394149,75.8120153 C96.3870255,60.6115632 83.7940596,48.7887816 68.2175681,43.9975939 C69.3871213,39.8897931 71.4536426,36.0638544 74.2913234,32.797433 C80.788634,25.3157011 89.7620426,20.788613 99.5583319,20.0496015 C109.335983,19.3119923 118.76836,22.4405211 126.112781,28.8607126 C135.824732,37.346023 141.5835,49.6783065 141.912932,62.6944444 C141.928309,63.3063142 141.945549,67.4636628 141.940423,83.7962375 C141.937162,93.7390038 145.794357,103.087195 152.801891,110.118789 C159.80896,117.150383 169.126245,121.023065 179.037626,121.023065 C180.968087,121.023065 182.532306,119.453425 182.532306,117.517318 C182.532306,115.581211 180.968087,114.011571 179.037626,114.011571 C170.993802,114.011571 163.432245,110.868552 157.745234,105.161663 C154.173204,101.577387 151.61137,97.2508276 150.199519,92.5297548 C153.783198,94.0400307 157.59473,94.7944674 161.40766,94.7944674 C168.974809,94.7944674 176.541491,91.8477701 182.308647,86.0623525 C191.755934,76.5898238 191.83934,61.2524138 182.493166,51.8710345 C174.740566,44.0999617 162.06466,44.1668046 154.236109,52.020613 C152.871319,53.3897241 152.871319,55.6095632 154.236574,56.9782069 C155.600898,58.3477854 157.81373,58.347318 159.178519,56.9782069 C164.283083,51.8570115 172.524938,51.7911034 177.550755,56.8286284 C184.171545,63.4741226 184.08907,74.3634406 177.366702,81.1033563 C169.627149,88.8669502 157.664157,89.942046 148.931649,83.8752337 C148.931649,83.8495249 148.929785,83.8238161 148.929785,83.7981073 C148.936774,63.9476322 148.909283,62.8706667 148.90043,62.5163525 C148.723832,55.5427203 147.1899,48.7397011 144.473368,42.4728276 C145.009219,41.835249 145.573494,41.2135632 146.168055,40.6171188 C160.594564,26.1444598 183.910609,25.9841303 198.142813,40.2609349 C206.917257,49.0631648 211.705902,60.8134943 211.627155,73.3481762 C211.61504,75.2842835 213.16994,76.8637395 215.099936,76.8758927 L215.122302,76.8758927 C217.042047,76.8758927 218.604402,75.3207433 218.616517,73.3921149 C218.706913,58.9685364 213.190909,45.4410268 203.085223,35.303341 L203.085223,35.303341 Z" id="Shape" fill="#212121"></path>
                        <path d="M49.0611255,35.7184215 C50.1598532,35.7184215 51.2702298,35.7572184 52.3615021,35.83341 C54.2831106,35.9684981 55.9568298,34.5110421 56.0900936,32.5796092 C56.2242894,30.6481762 54.772366,28.973364 52.8465638,28.8392107 C51.5945362,28.7518008 50.3210745,28.7073946 49.0611255,28.7073946 C28.2985277,28.7073946 9.17237234,40.8915019 0.333159574,59.7482146 C-0.488323404,61.5006207 0.262334043,63.5886437 2.00874255,64.412728 C2.48914468,64.639433 2.99517447,64.7469425 3.49374894,64.7469425 C4.80541915,64.7469425 6.06350426,64.0018544 6.65853191,62.7318391 C14.3500915,46.3221379 30.9940915,35.7184215 49.0611255,35.7184215 L49.0611255,35.7184215 Z" id="Shape" fill="#3B3EE2"></path>
                        <path d="M67.0121362,22.064705 C67.9063085,22.064705 68.8009468,21.7225441 69.4835745,21.0377548 C72.3631915,18.1485517 75.5908787,15.6524598 79.0776383,13.618659 C80.745766,12.6454636 81.3119043,10.4994789 80.3417809,8.82560153 C79.3711915,7.1512567 77.2319809,6.5837931 75.5638532,7.55745594 C71.5556872,9.89555556 67.8471319,12.7632567 64.5411638,16.0801609 C63.1763745,17.449272 63.1763745,19.6691111 64.5416298,21.0377548 C65.2237915,21.7225441 66.1179638,22.064705 67.0121362,22.064705 L67.0121362,22.064705 Z" id="Shape" fill="#3B3EE2"></path>
                        <path d="M95.6382319,7.79678161 C110.276751,5.60171648 125.257283,10.5532337 135.709174,21.0382222 C136.485926,21.817433 137.244038,22.6321686 137.962079,23.4599923 C138.652628,24.2569655 139.623683,24.6650345 140.599864,24.6650345 C141.413426,24.6650345 142.230249,24.3817701 142.892374,23.8044904 C144.348491,22.5335402 144.501791,20.3193103 143.234853,18.8585824 C142.41104,17.9082912 141.541564,16.9738927 140.651119,16.0806284 C128.639668,4.03114176 111.427666,-1.65704981 94.6052043,0.862881226 C92.6961766,1.14895019 91.3803128,2.93314176 91.6650128,4.84774713 C91.9501787,6.76235249 93.7292043,8.07911111 95.6382319,7.79678161 L95.6382319,7.79678161 Z" id="Shape" fill="#3B3EE2"></path>
                    </g>
                </g>
            </g>
        </g>
    </g>
</svg>
